<svg width="64" height="65" viewBox="0 0 64 65" fill="none" xmlns="http://www.w3.org/2000/svg">
<path d="M31.6926 52.8455C35.847 52.8455 39.9082 51.6135 43.3625 49.3054C46.8168 46.9973 49.5088 43.7167 51.0987 39.8785C52.6885 36.0403 53.1047 31.8168 52.2942 27.7423C51.4838 23.6677 49.4831 19.925 46.5455 16.9874C43.6078 14.0498 39.8649 12.0492 35.7904 11.2388C31.7157 10.4282 27.4923 10.8441 23.6541 12.4339C19.816 14.0237 16.5356 16.7162 14.2275 20.1705C11.9195 23.6247 10.6875 27.6859 10.6875 31.8404C10.6875 37.4112 12.9005 42.754 16.8397 46.6932C20.7789 50.6324 26.1217 52.8455 31.6926 52.8455Z" fill="url(#paint0_linear_501_1436)"/>
<path d="M31.6926 55.5496C35.847 55.5496 39.9082 54.3179 43.3625 52.0099C46.8168 49.7017 49.5088 46.4211 51.0987 42.583C52.6885 38.7448 53.1047 34.5213 52.2942 30.4467C51.4838 26.3721 49.4831 22.6296 46.5455 19.692C43.6078 16.7543 39.8649 14.7537 35.7904 13.9432C31.7157 13.1327 27.4923 13.5485 23.6541 15.1384C19.816 16.7282 16.5356 19.4207 14.2275 22.8749C11.9195 26.3291 10.6875 30.3901 10.6875 34.5445C10.6875 40.1153 12.9005 45.4582 16.8397 49.3974C20.7789 53.3366 26.1217 55.5496 31.6926 55.5496Z" fill="#E9F0F8"/>
<path d="M30.2613 22.3539C30.3945 22.0635 30.6033 21.8141 30.8655 21.6318C31.1318 21.4606 31.4416 21.3696 31.7582 21.3693C32.0788 21.3693 32.3929 21.4602 32.6639 21.6318C32.9255 21.8114 33.1304 22.0618 33.2547 22.3539L35.5915 27.6051C35.6484 27.7468 35.7438 27.8697 35.8671 27.9597C35.9947 28.0503 36.1445 28.1049 36.3005 28.1173L42.1293 28.6029C42.4505 28.6341 42.756 28.7572 43.0092 28.9574C43.2557 29.1671 43.4414 29.4393 43.5472 29.7452C43.6326 30.059 43.6326 30.3898 43.5472 30.7035C43.4513 31.011 43.2689 31.2842 43.022 31.4911L38.6636 35.1145C38.5454 35.2224 38.4553 35.3577 38.4011 35.5083C38.3552 35.6625 38.3552 35.827 38.4011 35.9812L39.7139 41.4423C39.7876 41.7541 39.7681 42.0805 39.6585 42.3814C39.5488 42.6823 39.3535 42.9446 39.0966 43.136C38.8417 43.3268 38.5353 43.4366 38.2171 43.451C37.8968 43.4724 37.5774 43.3994 37.2982 43.241L32.1126 40.2741C31.9863 40.1963 31.8408 40.1548 31.6925 40.1548C31.5441 40.1548 31.3986 40.1963 31.2722 40.2741L26.021 43.241C25.8145 43.3632 25.5835 43.4376 25.3447 43.4593C25.1058 43.481 24.8653 43.4494 24.6402 43.3664C24.4152 43.2835 24.2114 43.1511 24.0437 42.9795C23.8761 42.808 23.7487 42.6013 23.671 42.3744C23.5793 42.0704 23.5793 41.7463 23.671 41.4423L24.9838 35.9812C25.0298 35.827 25.0298 35.6625 24.9838 35.5083C24.9296 35.3577 24.8396 35.2224 24.7213 35.1145L20.363 31.4911C20.1128 31.2818 19.9299 31.0033 19.8376 30.6904C19.752 30.3812 19.752 30.0545 19.8376 29.7452C19.9357 29.4342 20.1241 29.1592 20.379 28.9558C20.6339 28.7524 20.9437 28.6296 21.2687 28.6029L27.0976 28.1173C27.2535 28.1049 27.4034 28.0503 27.5309 27.9597C27.6544 27.8665 27.7534 27.7448 27.8197 27.6051L30.2613 22.3539Z" fill="url(#paint1_linear_501_1436)"/>
<path d="M62.3992 31.2885C62.5897 30.8786 62.6713 30.4264 62.6357 29.9758C62.5995 29.5035 62.4361 29.0499 62.163 28.663L60.0233 25.6828C59.6682 25.1876 59.4963 24.5844 59.5374 23.9764L59.7868 20.3136C59.8071 19.8597 59.7123 19.4081 59.5111 19.0007C59.2967 18.5869 58.9805 18.2345 58.5921 17.9767L55.52 15.9681C55.0178 15.6269 54.6438 15.1279 54.4569 14.5501L53.3672 11.045C53.2249 10.6002 52.9665 10.2016 52.6188 9.88988C52.2749 9.57518 51.8536 9.3577 51.3979 9.25974L47.8139 8.48507C47.2177 8.35897 46.6839 8.02949 46.304 7.55301L44.0197 4.6777C43.7271 4.31165 43.3419 4.03078 42.904 3.86391C42.4859 3.7047 42.0339 3.65485 41.5912 3.71936L37.9678 4.31039C37.3654 4.40178 36.7497 4.28608 36.2217 3.98219L33.0579 2.1309C32.6587 1.90045 32.2059 1.7793 31.745 1.7793C31.2841 1.7793 30.8314 1.90045 30.4322 2.1309L27.2682 3.98219C26.74 4.28608 26.1246 4.40178 25.5222 4.31039L21.8989 3.71936C21.4561 3.65485 21.0042 3.7047 20.5861 3.86391C20.1481 4.03078 19.7627 4.31165 19.47 4.6777L17.1857 7.55301C16.8059 8.02949 16.2723 8.35897 15.6761 8.48507L12.0922 9.25974C11.6365 9.3577 11.2148 9.57518 10.871 9.88988C10.5233 10.2016 10.2652 10.6002 10.123 11.045L9.03318 14.5501C8.84621 15.1279 8.47196 15.6269 7.96972 15.9681L4.89792 17.9767C4.5096 18.2345 4.19308 18.5869 3.97869 19.0007C3.77746 19.4081 3.68266 19.8597 3.70305 20.3136L3.95273 23.9764C3.99378 24.5844 3.8219 25.1876 3.46684 25.6828L1.32709 28.663C1.05404 29.0499 0.890585 29.5035 0.854333 29.9758C0.818775 30.4264 0.900082 30.8786 1.09055 31.2885L2.63991 34.6232C2.89839 35.1723 2.95854 35.794 2.81042 36.3825L1.89151 39.9402C1.77304 40.392 1.77304 40.8669 1.89151 41.3187C2.02054 41.764 2.26518 42.167 2.60048 42.487L5.22613 45.0341C5.66494 45.4563 5.9432 46.0177 6.01363 46.6226L6.44696 50.2722C6.49482 50.7483 6.67172 51.2023 6.95882 51.5851C7.23709 51.9607 7.61446 52.2515 8.04857 52.4251L11.4357 53.8299C11.9987 54.0637 12.4629 54.486 12.7485 55.0245L14.4682 58.2803C14.6871 58.6957 15.0138 59.0448 15.4136 59.2912C15.8117 59.5278 16.2635 59.659 16.7265 59.672L20.3889 59.7639C20.9983 59.7799 21.5831 60.0072 22.0431 60.4072L24.8264 62.8094C25.1957 63.1346 25.6521 63.3448 26.1393 63.4136C26.5795 63.4932 27.0331 63.4524 27.4521 63.2953L30.9046 62.0613C31.4815 61.8528 32.1134 61.8528 32.6902 62.0613L36.1428 63.2953C36.5617 63.4524 37.0154 63.4932 37.4556 63.4136C37.9428 63.3448 38.3991 63.1346 38.7685 62.8094L41.5518 60.4072C42.0118 60.0072 42.5966 59.7799 43.2059 59.7639L46.8688 59.672C47.3317 59.659 47.7836 59.5278 48.1816 59.2912C48.5813 59.0448 48.9077 58.6957 49.1268 58.2803L50.8073 54.9588C51.0929 54.4202 51.557 53.998 52.12 53.7643L55.5069 52.3594C55.941 52.1858 56.3183 51.8951 56.5966 51.5193C56.8837 51.1366 57.0609 50.6826 57.1088 50.2066L57.5418 46.5569C57.6122 45.952 57.8909 45.3905 58.3296 44.9684L60.9553 42.4213C61.2906 42.1012 61.5352 41.6982 61.6643 41.253C61.7715 40.822 61.7715 40.3712 61.6643 39.9402L60.7451 36.3825C60.5969 35.794 60.6574 35.1723 60.9159 34.6232L62.3992 31.2885ZM31.6793 53.1998C26.8193 53.2082 22.1067 51.5307 18.3447 48.4536C14.5828 45.3766 12.004 41.0903 11.0482 36.3251C10.0925 31.5599 10.8189 26.611 13.1034 22.3213C15.3879 18.0316 19.0894 14.6666 23.5767 12.8001C28.0642 10.9337 33.0599 10.6811 37.7127 12.0854C42.3655 13.4897 46.3872 16.464 49.0928 20.5014C51.7984 24.5388 53.0201 29.3894 52.5498 34.2267C52.0797 39.0641 49.9467 43.5886 46.5142 47.0293C42.5824 50.9707 37.2465 53.1902 31.6793 53.1998Z" fill="url(#paint2_linear_501_1436)"/>
<defs>
<linearGradient id="paint0_linear_501_1436" x1="54.365" y1="59.7378" x2="21.3869" y2="19.1847" gradientUnits="userSpaceOnUse">
<stop stop-color="#003067"/>
<stop offset="0.2" stop-color="#003F7C"/>
<stop offset="0.47" stop-color="#004F90"/>
<stop offset="0.74" stop-color="#00589D"/>
<stop offset="1" stop-color="#005BA1"/>
</linearGradient>
<linearGradient id="paint1_linear_501_1436" x1="54.6669" y1="15.8685" x2="10.661" y2="51.5774" gradientUnits="userSpaceOnUse">
<stop offset="0.15" stop-color="#50E6FF"/>
<stop offset="0.69" stop-color="#0078D4"/>
</linearGradient>
<linearGradient id="paint2_linear_501_1436" x1="71.0116" y1="-9.34299" x2="5.27858" y2="61.0242" gradientUnits="userSpaceOnUse">
<stop stop-color="#50E6FF"/>
<stop offset="0.62" stop-color="#0078D4"/>
</linearGradient>
</defs>
</svg>
